<svg width="23" height="23" viewBox="0 0 23 23" fill="none" xmlns="http://www.w3.org/2000/svg">
<path d="M11.2584 22.236C13.4168 22.236 15.5267 21.596 17.3213 20.3968C19.1159 19.1977 20.5146 17.4934 21.3406 15.4993C22.1666 13.5052 22.3827 11.311 21.9616 9.19408C21.5405 7.07718 20.5012 5.13268 18.975 3.60648C17.4488 2.08028 15.5043 1.04093 13.3874 0.61985C11.2705 0.198772 9.07626 0.414885 7.08219 1.24086C5.08811 2.06683 3.38375 3.46557 2.18462 5.26019C0.985491 7.05481 0.345459 9.16471 0.345459 11.3231C0.348705 14.2164 1.4995 16.9902 3.54536 19.0361C5.59123 21.082 8.36509 22.2328 11.2584 22.236ZM11.2584 1.44949C13.2112 1.44949 15.1202 2.02856 16.7439 3.11349C18.3676 4.19841 19.6331 5.74046 20.3804 7.54462C21.1277 9.34879 21.3232 11.334 20.9423 13.2493C20.5613 15.1646 19.6209 16.9239 18.2401 18.3048C16.8592 19.6856 15.0999 20.626 13.1846 21.007C11.2693 21.3879 9.28408 21.1924 7.47992 20.4451C5.67576 19.6978 4.13371 18.4323 3.04879 16.8086C1.96386 15.1849 1.38478 13.2759 1.38478 11.3231C1.38776 8.70536 2.42896 6.19569 4.27998 4.34468C6.13099 2.49367 8.64065 1.45246 11.2584 1.44949ZM7.77298 11.6905C7.67832 11.5925 7.62594 11.4612 7.62712 11.325C7.62831 11.1887 7.68296 11.0584 7.77931 10.962C7.87566 10.8657 8.006 10.811 8.14225 10.8098C8.27851 10.8087 8.40977 10.861 8.50778 10.9557L10.2191 12.6669L14.0089 8.87704C14.1069 8.78238 14.2382 8.73 14.3745 8.73118C14.5107 8.73237 14.6411 8.78702 14.7374 8.88337C14.8338 8.97972 14.8884 9.11006 14.8896 9.24631C14.8908 9.38257 14.8384 9.51383 14.7437 9.61184L10.5864 13.7691C10.5382 13.8174 10.4809 13.8557 10.4179 13.8818C10.3548 13.9079 10.2873 13.9214 10.219 13.9214C10.1508 13.9214 10.0832 13.9079 10.0202 13.8818C9.95715 13.8557 9.89987 13.8174 9.85163 13.7691L7.77298 11.6905Z" fill="#EF8E0F"/>
</svg>
