<svg width="56" height="56" viewBox="0 0 56 56" fill="none" xmlns="http://www.w3.org/2000/svg">
<g clip-path="url(#clip0)">
<path d="M27.8142 2.63965C22.8144 2.63965 17.9269 4.12227 13.7697 6.90002C9.61247 9.67778 6.37232 13.6259 4.45897 18.2451C2.54562 22.8644 2.045 27.9473 3.02042 32.851C3.99584 37.7548 6.40348 42.2592 9.93889 45.7946C13.4743 49.33 17.9787 51.7376 22.8824 52.7131C27.7862 53.6885 32.8691 53.1879 37.4883 51.2745C42.1075 49.3612 46.0557 46.121 48.8334 41.9638C51.6112 37.8066 53.0938 32.9191 53.0938 27.9192C53.0745 21.2206 50.4049 14.8019 45.6682 10.0652C40.9316 5.32856 34.5129 2.65898 27.8142 2.63965Z" fill="#FFE6A1"/>
<path d="M27.814 0.368262C22.3473 0.368281 17.0035 1.99029 12.4591 5.02894C7.91474 8.0676 4.37411 12.3863 2.28546 17.4382C0.196804 22.4902 -0.345955 28.0483 0.72589 33.4089C1.79773 38.7695 4.43599 43.6915 8.30666 47.5519C12.1773 51.4123 17.1064 54.0375 22.4698 55.0951C27.8332 56.1527 33.3898 55.5952 38.4362 53.4931C43.4826 51.391 47.7919 47.839 50.8185 43.2865C53.845 38.7341 55.4528 33.386 55.4383 27.9193C55.4384 24.2951 54.7233 20.7065 53.3342 17.359C51.945 14.0116 49.909 10.9711 47.3429 8.41183C44.7768 5.85252 41.7309 3.82465 38.3798 2.44439C35.0287 1.06414 31.4382 0.358623 27.814 0.368262ZM27.814 50.9274C23.2634 50.9274 18.815 49.578 15.0314 47.0499C11.2477 44.5217 8.2987 40.9283 6.55727 36.7242C4.81584 32.52 4.36021 27.8938 5.24798 23.4307C6.13575 18.9676 8.32706 14.8679 11.5448 11.6502C14.7625 8.43243 18.8622 6.24112 23.3253 5.35335C27.7885 4.46558 32.4146 4.92122 36.6188 6.66264C40.823 8.40407 44.4163 11.3531 46.9445 15.1367C49.4727 18.9204 50.8221 23.3688 50.8221 27.9193C50.8317 30.9435 50.2432 33.9398 49.0904 36.7356C47.9376 39.5314 46.2432 42.0717 44.1047 44.2101C41.9663 46.3485 39.4261 48.0429 36.6302 49.1958C33.8344 50.3486 30.8382 50.9371 27.814 50.9274Z" fill="#EF8E0F"/>
<path d="M32.9434 29.2393C34.1097 28.4956 35.0787 27.4808 35.7677 26.2814C36.4567 25.082 36.8452 23.7337 36.9002 22.3516C36.9002 19.9807 35.9584 17.7069 34.2819 16.0304C32.6054 14.3539 30.3317 13.4121 27.9608 13.4121C25.5899 13.4121 23.3161 14.3539 21.6396 16.0304C19.9632 17.7069 19.0213 19.9807 19.0213 22.3516C18.9851 23.7796 19.3002 25.1946 19.9391 26.4723C20.5779 27.75 21.5209 28.8512 22.685 29.679C20.6154 30.553 18.81 31.9526 17.4476 33.7391C16.0853 35.5256 15.2133 37.6369 14.918 39.8641H17.6291C17.9898 37.4108 19.2209 35.169 21.0975 33.5482C22.9742 31.9273 25.3712 31.0354 27.8509 31.0354C30.3306 31.0354 32.7275 31.9273 34.6042 33.5482C36.4808 35.169 37.7119 37.4108 38.0726 39.8641H40.7837C40.5331 37.558 39.6754 35.3596 38.2981 33.4931C36.9208 31.6266 35.0731 30.1588 32.9434 29.2393ZM27.8142 28.2135C26.2386 28.2145 24.7241 27.604 23.5897 26.5106C22.4552 25.4172 21.7894 23.9261 21.7325 22.3516C21.7323 20.7318 22.3708 19.1772 23.5092 18.025C24.6477 16.8728 26.1945 16.2158 27.8142 16.1965C29.4407 16.2156 30.9952 16.8701 32.1454 18.0203C33.2956 19.1705 33.9502 20.7251 33.9692 22.3516C33.8939 23.9326 33.2123 25.4239 32.066 26.5156C30.9198 27.6072 29.3971 28.2153 27.8142 28.2135Z" fill="#EF8E0F"/>
<path d="M34.9948 37.1523H29.6458V39.8635H34.9948V37.1523Z" fill="#EF8E0F"/>
</g>
<defs>
<clipPath id="clip0">
<rect width="55.1754" height="55.1754" fill="white" transform="translate(0.263184 0.368164)"/>
</clipPath>
</defs>
</svg>
